<svg version="1.1" id="Layer_1" xmlns="http://www.w3.org/2000/svg" xmlns:xlink="http://www.w3.org/1999/xlink" x="0px" y="0px"
	 viewBox="0 0 200 42.8" style="enable-background:new 0 0 200 42.8;" xml:space="preserve">
<style type="text/css">
	.st0{fill:#FFFFFF;}
</style>
<g>
	<g>
		<g>
			<path class="st0" d="M26.8,35.9h10.6v-3.4h-5C30.7,34,28.8,35.2,26.8,35.9z"/>
			<path class="st0" d="M36.6,20.6c0-8.4-6.9-15.3-15.3-15.3S6,12.2,6,20.6s6.9,15.3,15.3,15.3S36.6,29.1,36.6,20.6z M9.7,15.7
				l1.5-2.6c0.4-0.6,1.2-0.9,1.8-0.5l3.3,1.9c0.3,0.2,0.6,0.5,0.6,0.9l0.3,2c0.1,0.3,0,0.6-0.2,0.9c-0.2,0.3-0.4,0.5-0.7,0.6
				l-1.9,0.7c-0.4,0.1-0.8,0.1-1.1-0.1l-3.3-1.9C9.5,17.2,9.3,16.4,9.7,15.7z M17.4,23.9L17,25.9c-0.1,0.4-0.3,0.7-0.6,0.9L13,28.7
				c-0.6,0.4-1.5,0.1-1.8-0.5l-1.5-2.6c-0.4-0.6-0.1-1.5,0.5-1.8l3.3-1.9c0.3-0.2,0.8-0.2,1.1-0.1l1.9,0.7c0.3,0.1,0.5,0.3,0.7,0.6
				C17.4,23.3,17.4,23.6,17.4,23.9z M24.1,31.8c0,0.7-0.6,1.3-1.3,1.3h-3c-0.7,0-1.3-0.6-1.3-1.3V28c0-0.4,0.2-0.8,0.5-1l1.5-1.3
				c0.2-0.2,0.6-0.3,0.9-0.3c0.3,0,0.6,0.1,0.9,0.3l1.5,1.3c0.3,0.3,0.5,0.6,0.5,1V31.8z M18.7,20.6c0-1.4,1.1-2.6,2.6-2.6
				s2.6,1.1,2.6,2.6s-1.1,2.6-2.6,2.6S18.7,22.1,18.7,20.6z M24.1,13.3c0,0.4-0.2,0.8-0.5,1l-1.5,1.3c-0.2,0.2-0.6,0.3-0.9,0.3
				c-0.3,0-0.6-0.1-0.9-0.3l-1.5-1.3c-0.3-0.3-0.5-0.6-0.5-1V9.5c0-0.7,0.6-1.3,1.3-1.3h3c0.7,0,1.3,0.6,1.3,1.3L24.1,13.3
				L24.1,13.3z M25.2,17.4l0.4-1.9c0.1-0.4,0.3-0.7,0.6-0.9l3.3-1.9c0.6-0.4,1.5-0.1,1.8,0.5l1.5,2.6c0.4,0.6,0.1,1.5-0.5,1.8
				l-3.3,1.9c-0.3,0.2-0.8,0.2-1.1,0.1L26,18.9c-0.3-0.1-0.5-0.3-0.7-0.6C25.2,18,25.1,17.7,25.2,17.4z M29.5,28.7l-3.3-1.9
				c-0.3-0.2-0.6-0.5-0.6-0.9l-0.3-2c-0.1-0.3,0-0.6,0.2-0.9c0.2-0.3,0.4-0.5,0.7-0.6l1.9-0.7c0.4-0.1,0.8-0.1,1.1,0.1l3.3,1.9
				c0.6,0.4,0.9,1.2,0.5,1.8l-1.5,2.6C31,28.9,30.2,29.1,29.5,28.7z"/>
		</g>
	</g>
	<g>
		<path class="st0" d="M56.1,25.4c-0.7,0.9-1.7,1.6-2.9,2l5.1,8.3h-5.2l-4.2-7.5h-1.3v7.5H43V16.2h6.2c2.7,0,4.7,0.5,6.1,1.5
			c1.3,1,2,2.5,2,4.5C57.2,23.4,56.8,24.6,56.1,25.4z M51.6,20.1c-0.5-0.4-1.4-0.7-2.5-0.7h-1.5v5.7h1.7c1,0,1.8-0.2,2.3-0.7
			c0.5-0.5,0.8-1.2,0.8-2.2C52.4,21.2,52.1,20.5,51.6,20.1z"/>
		<path class="st0" d="M70.7,21.2c1.1,0.7,1.9,1.6,2.5,2.8c0.6,1.2,0.9,2.6,0.9,4.2c0,1.7-0.3,3.1-0.9,4.3c-0.6,1.2-1.4,2.1-2.5,2.8
			s-2.4,1-3.9,1c-1.5,0-2.8-0.3-3.9-0.9c-1.1-0.6-1.9-1.5-2.5-2.7c-0.6-1.2-0.9-2.6-0.9-4.3c0-1.6,0.3-3,0.9-4.2
			c0.6-1.2,1.4-2.1,2.5-2.8c1.1-0.7,2.4-1,3.9-1C68.3,20.2,69.6,20.6,70.7,21.2z M64.7,24.7c-0.4,0.8-0.7,1.9-0.7,3.6
			c0,1.6,0.2,2.8,0.7,3.6s1.1,1.1,2,1.1s1.6-0.4,2-1.1s0.7-2,0.7-3.6c0-1.6-0.2-2.8-0.7-3.5c-0.4-0.7-1.1-1.1-2-1.1
			S65.2,23.9,64.7,24.7z"/>
		<path class="st0" d="M86.9,32.4c0.5-0.2,1.1-0.5,1.7-1l2,2.8c-0.7,0.6-1.5,1.1-2.5,1.4c-1,0.4-2,0.5-3.1,0.5c-1.6,0-3-0.3-4.1-1
			c-1.2-0.7-2.1-1.6-2.7-2.8s-0.9-2.6-0.9-4.1s0.3-3,1-4.2c0.6-1.2,1.6-2.2,2.7-2.9c1.2-0.7,2.6-1,4.1-1c1.1,0,2.1,0.2,3,0.5
			s1.7,0.8,2.5,1.4l-1.9,2.7c-1.1-0.8-2.2-1.1-3.4-1.1c-1.1,0-1.9,0.4-2.5,1.1s-0.9,1.9-0.9,3.5c0,1.6,0.3,2.7,0.9,3.4s1.4,1,2.4,1
			C85.8,32.7,86.3,32.6,86.9,32.4z"/>
		<path class="st0" d="M98.7,35.8h-4.5v-21l4.5-0.5V35.8z M103.5,27.4l5.3,8.4h-5.1l-4.9-8.2l4.9-6.8h4.7L103.5,27.4z"/>
		<path class="st0" d="M125.7,35.8h-4l-0.2-8.4c0-0.9,0-1.5,0-1.8c0-0.9,0-1.7,0.1-2.4c0-0.7,0.1-1.6,0.2-2.8l0-0.3l-2.2,12.3h-3.5
			l-2.4-12.3c0.1,1.1,0.2,2.1,0.2,2.9c0,0.8,0.1,1.8,0.1,2.8c0,0.7,0,1.2,0,1.6l-0.1,8.3h-4l1.1-19.6h4.8l2.2,12.7l2.1-12.7h4.8
			L125.7,35.8z"/>
		<path class="st0" d="M138.5,21.2c1.1,0.7,1.9,1.6,2.5,2.8c0.6,1.2,0.9,2.6,0.9,4.2c0,1.7-0.3,3.1-0.9,4.3
			c-0.6,1.2-1.4,2.1-2.5,2.8c-1.1,0.6-2.4,1-3.9,1c-1.5,0-2.8-0.3-3.9-0.9c-1.1-0.6-1.9-1.5-2.5-2.7c-0.6-1.2-0.9-2.6-0.9-4.3
			c0-1.6,0.3-3,0.9-4.2c0.6-1.2,1.4-2.1,2.5-2.8c1.1-0.7,2.4-1,3.9-1C136.1,20.2,137.5,20.6,138.5,21.2z M132.6,24.7
			c-0.4,0.8-0.7,1.9-0.7,3.6c0,1.6,0.2,2.8,0.7,3.6s1.1,1.1,2,1.1c0.9,0,1.6-0.4,2-1.1s0.7-2,0.7-3.6c0-1.6-0.2-2.8-0.7-3.5
			c-0.4-0.7-1.1-1.1-2-1.1C133.7,23.5,133,23.9,132.6,24.7z"/>
		<path class="st0" d="M154.2,35.8H149l-5.1-15h4.8l2.9,11.6l3.1-11.6h4.5L154.2,35.8z"/>
		<path class="st0" d="M171.2,32.7h3.8v3.1h-12.5v-3.1h4.3v-8.9h-4.1v-3.1h8.6V32.7z M169.9,13.2c0.4,0.2,0.7,0.5,0.9,0.9
			c0.2,0.4,0.3,0.8,0.3,1.3s-0.1,0.9-0.3,1.3c-0.2,0.4-0.5,0.7-0.9,0.9c-0.4,0.2-0.9,0.3-1.3,0.3c-0.5,0-1-0.1-1.4-0.3
			c-0.4-0.2-0.7-0.5-0.9-0.9c-0.2-0.4-0.3-0.8-0.3-1.3s0.1-0.9,0.3-1.3c0.2-0.4,0.5-0.7,0.9-0.9c0.4-0.2,0.9-0.3,1.4-0.3
			S169.5,13,169.9,13.2z"/>
		<path class="st0" d="M184,32.2c0.6,0.6,1.4,0.8,2.4,0.8c1.3,0,2.6-0.4,3.8-1.2l1.8,2.4c-0.7,0.6-1.6,1.1-2.6,1.5
			c-1,0.4-2.1,0.6-3.4,0.6c-1.7,0-3.1-0.3-4.3-1c-1.2-0.7-2-1.6-2.6-2.8c-0.6-1.2-0.9-2.6-0.9-4.2c0-1.5,0.3-2.9,0.9-4.1
			c0.6-1.2,1.4-2.2,2.5-2.9c1.1-0.7,2.4-1.1,3.9-1.1c1.4,0,2.7,0.3,3.7,0.9c1.1,0.6,1.9,1.5,2.5,2.7c0.6,1.2,0.9,2.5,0.9,4.1
			c0,0.6,0,1.1-0.1,1.6h-9.7C183,30.7,183.4,31.6,184,32.2z M183.7,24.1c-0.5,0.6-0.8,1.5-0.9,2.7h5.5c0-2.4-0.9-3.6-2.7-3.6
			C184.8,23.2,184.2,23.5,183.7,24.1z"/>
	</g>
</g>
</svg>